<svg width="33" height="33" viewBox="0 0 33 33" fill="none" xmlns="http://www.w3.org/2000/svg">
<path d="M16.3924 3.05176e-05C7.32795 3.05176e-05 0 7.32798 0 16.3924C0 25.4568 7.32795 32.7847 16.3924 32.7847C25.4567 32.7847 32.7847 25.4568 32.7847 16.3924C32.7847 7.32798 25.4567 3.05176e-05 16.3924 3.05176e-05ZM16.3924 30.0627C8.85656 30.0627 2.722 23.9282 2.722 16.3924C2.722 8.85659 8.85656 2.72203 16.3924 2.72203C23.9281 2.72203 30.0627 8.85659 30.0627 16.3924C30.0627 23.9282 23.9281 30.0627 16.3924 30.0627Z" fill="#7A7A7A"/>
<path d="M23.7874 8.99738C23.2309 8.44092 22.3929 8.44092 21.8364 8.99738L16.3924 14.4414L10.9551 9.00409C10.3986 8.44762 9.56056 8.44762 9.00409 9.00409C8.44762 9.56056 8.44762 10.3986 9.00409 10.9551L14.4414 16.3924L9.00409 21.8297C8.44762 22.3861 8.42751 23.2443 9.00409 23.7807C9.43988 24.1829 10.2645 24.4779 10.9551 23.7807L16.3924 18.3434L21.8297 23.7807C22.661 24.5651 23.5058 24.0623 23.7807 23.7807C24.3371 23.2242 24.3371 22.3861 23.7807 21.8297L18.3434 16.3924L23.7807 10.9551C24.3438 10.3919 24.3438 9.55385 23.7874 8.99738Z" fill="#7A7A7A"/>
</svg>
