<svg width="196" height="118" viewBox="0 0 196 118" fill="none" xmlns="http://www.w3.org/2000/svg">
<path fill-rule="evenodd" clip-rule="evenodd" d="M17 32C17 23.7157 23.7157 17 32 17H165C173.284 17 180 23.7157 180 32V86C180 94.2843 173.284 101 165 101H32C23.7157 101 17 94.2843 17 86V32ZM32 27C29.2386 27 27 29.2386 27 32V86C27 88.7614 29.2386 91 32 91H165C167.761 91 170 88.7614 170 86V32C170 29.2386 167.761 27 165 27H32Z" fill="#444444"/>
<rect x="35" y="39" width="25" height="41" rx="10" fill="#F3F3F3"/>
<rect x="69" y="39" width="25" height="41" rx="10" fill="#F3F3F3"/>
<rect x="103" y="39" width="25" height="41" rx="10" fill="#F3F3F3"/>
<rect x="137" y="39" width="25" height="41" rx="10" fill="#F3F3F3"/>
<path fill-rule="evenodd" clip-rule="evenodd" d="M191 78.739C193.761 78.739 196 80.9775 196 83.739V98.1084C196 103.246 193.959 108.172 190.327 111.805C186.694 115.437 181.768 117.478 176.63 117.478H162.261C159.5 117.478 157.261 115.239 157.261 112.478C157.261 109.716 159.5 107.478 162.261 107.478H176.63C179.115 107.478 181.499 106.491 183.256 104.734C185.013 102.977 186 100.593 186 98.1084V83.739C186 80.9775 188.239 78.739 191 78.739Z" fill="#F3F3F3"/>
<path fill-rule="evenodd" clip-rule="evenodd" d="M157.261 5C157.261 2.23858 159.5 0 162.261 0H176.631C181.768 0 186.694 2.04071 190.327 5.67319C193.959 9.30567 196 14.2324 196 19.3695V33.739C196 36.5004 193.761 38.739 191 38.739C188.239 38.739 186 36.5004 186 33.739V19.3695C186 16.8845 185.013 14.5014 183.256 12.7443C181.499 10.9871 179.115 10 176.631 10H162.261C159.5 10 157.261 7.76142 157.261 5Z" fill="#F3F3F3"/>
<path fill-rule="evenodd" clip-rule="evenodd" d="M5 78.739C7.76143 78.739 10 80.9775 10 83.739V98.1084C10 100.593 10.9871 102.977 12.7443 104.734C14.5014 106.491 16.8845 107.478 19.3695 107.478H33.739C36.5004 107.478 38.739 109.716 38.739 112.478C38.739 115.239 36.5004 117.478 33.739 117.478H19.3695C14.2324 117.478 9.30568 115.437 5.67319 111.805C2.04071 108.172 1.90735e-06 103.246 1.90735e-06 98.1084V83.739C1.90735e-06 80.9775 2.23858 78.739 5 78.739Z" fill="#F3F3F3"/>
<path fill-rule="evenodd" clip-rule="evenodd" d="M19.3695 10C16.8845 10 14.5014 10.9871 12.7443 12.7443C10.9871 14.5014 10 16.8845 10 19.3695V33.739C10 36.5004 7.76143 38.739 5 38.739C2.23858 38.739 1.90735e-06 36.5004 1.90735e-06 33.739V19.3695C1.90735e-06 14.2324 2.04071 9.30567 5.67319 5.67319C9.30567 2.04071 14.2324 0 19.3695 0H33.739C36.5004 0 38.739 2.23858 38.739 5C38.739 7.76142 36.5004 10 33.739 10H19.3695Z" fill="#F3F3F3"/>
</svg>
