<svg width="17" height="17" viewBox="0 0 17 17" fill="none" xmlns="http://www.w3.org/2000/svg">
<path d="M3.86377 9.27273V12.3636C3.86377 12.7904 4.20975 13.1364 4.6365 13.1364H7.72741C7.93233 13.1364 8.12886 13.0549 8.27378 12.91L16.7737 4.41001C17.0755 4.10823 17.0755 3.61899 16.7737 3.31722L13.6828 0.226306C13.538 0.0814455 13.3414 0 13.1365 0C12.9316 0 12.735 0.0814455 12.5901 0.226358L4.09013 8.72636C3.94516 8.87122 3.86377 9.0678 3.86377 9.27273ZM5.40922 9.59279L13.1365 1.86552L15.1346 3.86364L7.40734 11.5909H5.40922V9.59279Z" fill="black"/>
<path d="M16.2273 7.72732C15.8005 7.72732 15.4545 8.0733 15.4545 8.50005V15.4545H1.54545V1.54545H8.5C8.92675 1.54545 9.27273 1.19948 9.27273 0.772727C9.27273 0.345976 8.92675 0 8.5 0H0.772727C0.345976 0 0 0.345976 0 0.772727V16.2273C0 16.654 0.345976 17 0.772727 17H16.2273C16.654 17 17 16.654 17 16.2273V8.50005C17 8.07325 16.654 7.72732 16.2273 7.72732Z" fill="black"/>
</svg>
