<svg width="30" height="30" viewBox="0 0 30 30" fill="none" xmlns="http://www.w3.org/2000/svg">
<path d="M15 3.8147e-06C6.72923 3.8147e-06 0 6.72866 0 15C0 23.2713 6.72923 30 15 30C23.2708 30 30 23.2713 30 15C30 6.72866 23.2708 3.8147e-06 15 3.8147e-06ZM16.1538 23.6538C16.1538 24.2908 15.6369 24.8077 15 24.8077C14.3631 24.8077 13.8462 24.2908 13.8462 23.6538V22.5C13.8462 21.8631 14.3631 21.3462 15 21.3462C15.6369 21.3462 16.1538 21.8631 16.1538 22.5V23.6538ZM16.1538 19.0385C16.1538 19.6754 15.6369 20.1923 15 20.1923C14.3631 20.1923 13.8462 19.6754 13.8462 19.0385V6.34616C13.8462 5.70923 14.3631 5.19231 15 5.19231C15.6369 5.19231 16.1538 5.70923 16.1538 6.34616V19.0385Z" fill="#363636"/>
</svg>
