<svg width="60" height="54" viewBox="0 0 60 54" fill="none" xmlns="http://www.w3.org/2000/svg">
<path d="M54.6551 0C51.7075 0 49.3095 2.39626 49.3095 5.34155C49.3095 6.03108 49.4457 6.71918 49.7064 7.35692L40.9288 16.1277C38.7014 14.4727 35.9437 13.492 32.961 13.492C30.5789 13.492 28.2554 14.1253 26.2056 15.3282L20.6908 9.00041C21.0641 8.25922 21.2597 7.44062 21.2597 6.60643C21.2597 3.66172 18.8619 1.26603 15.9146 1.26603C12.9672 1.26603 10.5694 3.66172 10.5694 6.60643C10.5694 9.55172 12.9672 11.948 15.9146 11.948C16.4716 11.948 17.017 11.863 17.542 11.6947L22.9954 17.9517C20.7883 20.4107 19.5799 23.552 19.5799 26.8626C19.5799 28.1894 19.7769 29.5014 20.1661 30.7695L8.15622 39.3108C7.31236 38.7861 6.34992 38.5109 5.34524 38.5109C2.3978 38.5111 -5.34058e-05 40.9068 -5.34058e-05 43.8516C-5.34058e-05 46.7969 2.3978 49.193 5.34524 49.193C8.29255 49.193 10.6904 46.7969 10.6904 43.8516C10.6904 43.4574 10.647 43.0666 10.5609 42.6842L22.0144 34.5391C23.4906 36.6336 25.5501 38.2757 27.9137 39.2427L26.6367 42.8407C23.9198 43.0888 21.7805 45.3848 21.7805 48.1592C21.7805 51.1042 24.1784 53.5001 27.1257 53.5001C30.073 53.5001 32.471 51.1042 32.471 48.1592C32.471 46.5926 31.7757 45.1072 30.5895 44.0956L31.9739 40.195C32.3094 40.2205 32.6398 40.2334 32.961 40.2334C34.6749 40.2334 36.3419 39.9116 37.9238 39.276L43.6668 46.1935C43.2694 46.9532 43.0612 47.7962 43.0612 48.6585C43.0612 51.6037 45.4588 54 48.4056 54C51.3534 54 53.7515 51.6037 53.7515 48.6585C53.7515 45.7137 51.3534 43.318 48.4056 43.318C47.8771 43.318 47.3577 43.3952 46.8559 43.5478L41.5257 37.1276C44.595 34.5743 46.3417 30.8704 46.3417 26.8629C46.3417 23.9621 45.4121 21.2743 43.8355 19.0808L52.6376 10.2856C53.2759 10.5459 53.9649 10.6821 54.6551 10.6821C57.6022 10.6821 59.9999 8.28641 59.9999 5.34169C59.9999 2.39626 57.6022 0 54.6551 0ZM32.961 19.6529C36.9396 19.6529 40.1765 22.8872 40.1765 26.8627C40.1765 30.8382 36.9398 34.0725 32.961 34.0725C28.9822 34.0725 25.7452 30.8382 25.7452 26.8627C25.7452 22.8872 28.9822 19.6529 32.961 19.6529Z" fill="#F3F3F3"/>
</svg>
