<svg width="11" height="18" viewBox="0 0 11 18" fill="none" xmlns="http://www.w3.org/2000/svg">
<path d="M10.8627 3.37233C10.8773 3.3534 10.8909 3.33377 10.9034 3.31335C10.9063 3.30851 10.9094 3.30375 10.9123 3.29891C10.9263 3.27462 10.9389 3.24953 10.9498 3.22347C10.9511 3.22048 10.952 3.2174 10.9532 3.21432C10.9624 3.19143 10.9701 3.16784 10.9766 3.14381C10.9783 3.13773 10.9799 3.13175 10.9814 3.12559C10.9875 3.10023 10.9925 3.07444 10.9954 3.04803C10.9956 3.04654 10.996 3.04504 10.9961 3.04346C10.9987 3.02039 11 2.99707 11 2.97339V0.660205C11 0.295596 10.6992 0 10.3283 0H0.671731C0.300756 0 0 0.295596 0 0.660205V2.97347C0 2.99715 0.00143296 3.02048 0.00385119 3.04354C0.00403032 3.04504 0.00438853 3.04654 0.00456765 3.04812C0.00761283 3.07453 0.012539 3.10032 0.0186294 3.12567C0.0200624 3.13175 0.0217639 3.13782 0.023376 3.14389C0.0299142 3.16793 0.0376169 3.19152 0.0467524 3.2144C0.0479168 3.2174 0.0489018 3.22048 0.0501557 3.22356C0.060993 3.24962 0.0736217 3.2747 0.0876833 3.299C0.0905493 3.30393 0.093684 3.30859 0.0966396 3.31344C0.109179 3.33386 0.122703 3.35349 0.137302 3.37241C0.13972 3.37549 0.141511 3.37893 0.143929 3.38201L4.64498 9L0.143929 14.618C0.141422 14.6211 0.13972 14.6245 0.137302 14.6276C0.122703 14.6465 0.109089 14.6661 0.0966396 14.6866C0.093684 14.6914 0.0905493 14.6962 0.0876833 14.701C0.0737113 14.7253 0.0610825 14.7504 0.0501557 14.7764C0.0489018 14.7794 0.0480063 14.7825 0.0467524 14.7856C0.0376169 14.8085 0.0299142 14.8321 0.023376 14.8561C0.0216743 14.8622 0.0200624 14.8682 0.0186294 14.8743C0.012539 14.8997 0.00752327 14.9255 0.00456765 14.9519C0.00438853 14.9534 0.00403032 14.9549 0.00385119 14.9565C0.0013434 14.9795 0 15.0028 0 15.0265V17.3398C0 17.7044 0.300756 18 0.671731 18H10.3283C10.6992 18 11 17.7044 11 17.3398V15.0265C11 15.0028 10.9986 14.9795 10.9961 14.9565C10.996 14.955 10.9956 14.9535 10.9954 14.9519C10.9924 14.9255 10.9875 14.8997 10.9814 14.8743C10.9799 14.8683 10.9782 14.8622 10.9766 14.8561C10.9701 14.8321 10.9624 14.8085 10.9532 14.7856C10.9521 14.7826 10.9511 14.7795 10.9498 14.7764C10.939 14.7504 10.9264 14.7253 10.9123 14.701C10.9094 14.6961 10.9063 14.6914 10.9034 14.6866C10.8908 14.6661 10.8773 14.6465 10.8627 14.6276C10.8603 14.6245 10.8585 14.6211 10.8561 14.618L6.35502 9L10.8561 3.38201C10.8586 3.37893 10.8603 3.37549 10.8627 3.37233ZM9.65654 1.32041V2.31327H1.34346V1.32041H9.65654ZM1.34346 16.6795V15.6866H9.65654V16.6795H1.34346ZM8.94441 14.3662H2.05568L5.50004 10.0672L8.94441 14.3662ZM5.50004 7.93284L2.05568 3.63368H8.94441L5.50004 7.93284Z" fill="white"/>
</svg>
