<svg width="41" height="35" viewBox="0 0 41 35" fill="none" xmlns="http://www.w3.org/2000/svg">
<path d="M41 8.75003V31.25C41 33.3203 39.2783 35 37.1562 35H3.84375C1.72168 35 0 33.3203 0 31.25V8.75003C0 6.67972 1.72168 5.00003 3.84375 5.00003H10.8906L11.8756 2.42972C12.4361 0.96878 13.8695 3.05176e-05 15.4711 3.05176e-05H25.5209C27.1225 3.05176e-05 28.5559 0.96878 29.1164 2.42972L30.1094 5.00003H37.1562C39.2783 5.00003 41 6.67972 41 8.75003ZM30.1094 20C30.1094 14.8282 25.8012 10.625 20.5 10.625C15.1988 10.625 10.8906 14.8282 10.8906 20C10.8906 25.1719 15.1988 29.375 20.5 29.375C25.8012 29.375 30.1094 25.1719 30.1094 20ZM27.5469 20C27.5469 23.7891 24.3838 26.875 20.5 26.875C16.6162 26.875 13.4531 23.7891 13.4531 20C13.4531 16.211 16.6162 13.125 20.5 13.125C24.3838 13.125 27.5469 16.211 27.5469 20Z" fill="#F3F3F3"/>
</svg>
