<svg width="122" height="132" viewBox="0 0 122 132" fill="none" xmlns="http://www.w3.org/2000/svg">
<g opacity="0.05">
<path fill-rule="evenodd" clip-rule="evenodd" d="M19.0628 35.8829C19.0628 26.5935 26.5934 19.0628 35.8829 19.0628H185.021C194.311 19.0628 201.841 26.5935 201.841 35.8829V96.4353C201.841 105.725 194.311 113.255 185.021 113.255H35.8829C26.5934 113.255 19.0628 105.725 19.0628 96.4353V35.8829ZM35.8829 30.2762C32.7864 30.2762 30.2762 32.7864 30.2762 35.8829V96.4353C30.2762 99.5318 32.7864 102.042 35.8829 102.042H185.021C188.118 102.042 190.628 99.5318 190.628 96.4353V35.8829C190.628 32.7864 188.118 30.2762 185.021 30.2762H35.8829Z" fill="#444444"/>
<rect x="39.2469" y="43.7323" width="28.0335" height="45.975" rx="10" fill="#444444"/>
<rect x="77.3725" y="43.7323" width="28.0335" height="45.975" rx="10" fill="#444444"/>
<rect x="115.498" y="43.7323" width="28.0335" height="45.975" rx="10" fill="#444444"/>
<path fill-rule="evenodd" clip-rule="evenodd" d="M5.6067 88.2932C8.7032 88.2932 11.2134 90.8034 11.2134 93.8999V110.013C11.2134 112.799 12.3203 115.472 14.2907 117.442C16.261 119.412 18.9333 120.519 21.7198 120.519H37.8329C40.9294 120.519 43.4396 123.03 43.4396 126.126C43.4396 129.223 40.9294 131.733 37.8329 131.733H21.7198C15.9593 131.733 10.4348 129.444 6.36158 125.371C2.28833 121.298 0 115.773 0 110.013V93.8999C0 90.8034 2.51021 88.2932 5.6067 88.2932Z" fill="#444444"/>
<path fill-rule="evenodd" clip-rule="evenodd" d="M21.7198 11.2134C18.9333 11.2134 16.261 12.3203 14.2907 14.2907C12.3203 16.261 11.2134 18.9333 11.2134 21.7198V37.8329C11.2134 40.9294 8.7032 43.4396 5.6067 43.4396C2.51021 43.4396 0 40.9294 0 37.8329V21.7198C0 15.9593 2.28833 10.4348 6.36158 6.36158C10.4348 2.28833 15.9593 0 21.7198 0H37.8329C40.9294 0 43.4396 2.51021 43.4396 5.6067C43.4396 8.7032 40.9294 11.2134 37.8329 11.2134H21.7198Z" fill="#444444"/>
</g>
</svg>
