<svg width="129" height="79" viewBox="0 0 129 79" fill="none" xmlns="http://www.w3.org/2000/svg">
<g opacity="0.03">
<path d="M198.469 0H22.1057C9.9168 0 0 9.91637 0 22.1053V56.7053C0 68.8942 9.9168 78.811 22.1057 78.811H198.469C210.658 78.811 220.575 68.8942 220.575 56.7053V22.1053C220.574 9.91637 210.658 0 198.469 0ZM206.158 56.7053C206.158 60.9449 202.708 64.3939 198.469 64.3939H22.1057C17.8661 64.3939 14.417 60.9445 14.417 56.7053V22.1053C14.417 17.8657 17.8665 14.4166 22.1057 14.4166H198.469C202.709 14.4166 206.158 17.8661 206.158 22.1053V56.7053H206.158Z" fill="black"/>
<path d="M49.718 51.4042L41.5904 38.8603L49.3893 26.3634C49.7184 25.8468 49.8593 25.3768 49.8593 24.9068C49.8593 22.9341 47.1818 21.4306 45.1144 21.4306C44.0813 21.4306 43.3761 21.8063 42.906 22.6524L36.6576 33.5523L30.4096 22.6524C29.9395 21.8067 29.2352 21.4306 28.2012 21.4306C26.1338 21.4306 23.4563 22.9341 23.4563 24.9068C23.4563 25.3772 23.5972 25.8468 23.9263 26.3634L31.7252 38.8603L23.5976 51.4042C23.3154 51.8742 23.1745 52.2964 23.1745 52.7194C23.1745 54.7395 26.0407 56.3369 28.0604 56.3369C28.8121 56.3369 29.4704 56.1021 29.7987 55.5852L36.6576 43.9344L43.5165 55.5852C43.7987 56.1017 44.5035 56.3369 45.2548 56.3369C47.2749 56.3369 50.1411 54.7395 50.1411 52.7194C50.1411 52.2968 49.9998 51.8737 49.718 51.4042Z" fill="black"/>
<path d="M73.0192 21.7128C71.8452 21.7128 71.3752 22.1828 70.9052 23.075L64.375 35.1488L57.7978 23.075C57.2813 22.1828 56.8582 21.7128 55.6838 21.7128C53.6638 21.7128 50.7037 22.9815 50.7037 24.7194C50.7037 24.8603 50.7037 25.0485 50.798 25.2359L60.5227 41.3504C60.617 41.4912 60.711 41.726 60.711 42.0078V53.7999C60.711 55.303 62.5432 56.0547 64.375 56.0547C66.2072 56.0547 68.0399 55.303 68.0399 53.7999V42.0078C68.0399 41.726 68.1338 41.4912 68.2277 41.3504L77.9063 25.2359C78.0002 25.0481 78.0002 24.8603 78.0002 24.7194C77.9998 22.9811 75.0397 21.7128 73.0192 21.7128Z" fill="black"/>
<path d="M100.784 49.6663H88.0058L101.254 26.2233C101.771 25.2833 102.052 24.3911 102.052 23.6393C102.052 22.5115 101.348 21.7128 99.9388 21.7128H81.8043C80.2538 21.7128 79.596 23.3572 79.596 24.9072C79.596 26.5986 80.3947 28.1021 81.8043 28.1021H92.7042L79.4559 51.545C78.9394 52.4381 78.6572 53.3773 78.6572 54.1295C78.6572 55.2569 79.2681 56.0556 80.7712 56.0556H100.785C102.194 56.0556 102.993 54.3642 102.993 52.8611C102.992 51.3572 102.193 49.6663 100.784 49.6663Z" fill="black"/>
<path d="M134.174 21.7128C127.69 21.7128 122.663 24.7194 122.663 32.8001V45.2496C122.663 53.3303 127.69 56.3369 134.174 56.3369C140.657 56.3369 145.731 53.3303 145.731 45.2496V32.8001C145.731 24.719 140.657 21.7128 134.174 21.7128ZM138.402 45.2496C138.402 48.491 136.804 49.9476 134.174 49.9476C131.543 49.9476 129.992 48.491 129.992 45.2496V32.8001C129.992 29.5582 131.543 28.1021 134.174 28.1021C136.804 28.1021 138.402 29.5582 138.402 32.8001V45.2496Z" fill="black"/>
</g>
</svg>
