<svg width="22" height="27" viewBox="0 0 22 27" fill="none" xmlns="http://www.w3.org/2000/svg">
<path d="M20.0676 5.01691H17.5592V1.6723C17.5592 0.748774 16.8104 0 15.8869 0H5.85306C4.92953 0 4.18076 0.748774 4.18076 1.6723V5.01691H1.6723C0.748774 5.01691 0 5.76568 0 6.68921V8.36152H21.7399V6.68921C21.7399 5.76568 20.9912 5.01691 20.0676 5.01691ZM7.52536 5.01691V3.34461H14.2146V5.01691H7.52536Z" fill="white"/>
<path d="M1.67231 25.0848C1.67231 26.0083 2.42087 26.7568 3.3444 26.7568H18.3958C19.3191 26.7568 20.0676 26.0083 20.0676 25.085V25.0848V10.0338H1.67231V25.0848ZM14.2146 14.2146C14.2146 13.7528 14.589 13.3784 15.0507 13.3784C15.5125 13.3784 15.8869 13.7528 15.8869 14.2146V22.5761C15.8869 23.0379 15.5125 23.4122 15.0507 23.4122C14.589 23.4122 14.2146 23.0379 14.2146 22.5761V14.2146ZM10.0338 14.2146C10.0338 13.7528 10.4082 13.3784 10.87 13.3784C11.3317 13.3784 11.7061 13.7528 11.7061 14.2146V22.5761C11.7061 23.0379 11.3317 23.4122 10.87 23.4122C10.4082 23.4122 10.0338 23.0379 10.0338 22.5761V14.2146ZM5.85306 14.2146C5.85306 13.7528 6.22745 13.3784 6.68922 13.3784C7.15098 13.3784 7.52537 13.7528 7.52537 14.2146V22.5761C7.52537 23.0379 7.15098 23.4122 6.68922 23.4122C6.22745 23.4122 5.85306 23.0379 5.85306 22.5761V14.2146Z" fill="white"/>
</svg>
