<svg width="154" height="180" viewBox="0 0 154 180" fill="none" xmlns="http://www.w3.org/2000/svg">
<path fill-rule="evenodd" clip-rule="evenodd" d="M198.341 120.616C202.571 120.616 206 124.045 206 128.276V150.287C206 158.157 202.874 165.704 197.31 171.268C191.745 176.833 184.198 179.959 176.329 179.959H154.317C150.087 179.959 146.658 176.529 146.658 172.299C146.658 168.069 150.087 164.64 154.317 164.64H176.329C180.135 164.64 183.786 163.128 186.478 160.436C189.169 157.745 190.681 154.094 190.681 150.287V128.276C190.681 124.045 194.111 120.616 198.341 120.616Z" fill="#F3F3F3"/>
<path fill-rule="evenodd" clip-rule="evenodd" d="M146.658 7.65925C146.658 3.42916 150.087 0 154.317 0H176.329C184.198 0 191.745 3.12606 197.31 8.69048C202.874 14.2549 206 21.8019 206 29.6711V51.683C206 55.9131 202.571 59.3423 198.341 59.3423C194.111 59.3423 190.681 55.9131 190.681 51.683V29.6711C190.681 25.8646 189.169 22.2139 186.478 19.5223C183.786 16.8307 180.135 15.3185 176.329 15.3185H154.317C150.087 15.3185 146.658 11.8893 146.658 7.65925Z" fill="#F3F3F3"/>
<path fill-rule="evenodd" clip-rule="evenodd" d="M7.65925 120.616C11.8893 120.616 15.3185 124.045 15.3185 128.276V150.287C15.3185 154.094 16.8307 157.745 19.5223 160.436C22.2139 163.128 25.8646 164.64 29.6711 164.64H51.683C55.9131 164.64 59.3423 168.069 59.3423 172.299C59.3423 176.529 55.9131 179.959 51.683 179.959H29.6711C21.8019 179.959 14.2549 176.833 8.69048 171.268C3.12606 165.704 0 158.157 0 150.287V128.276C0 124.045 3.42916 120.616 7.65925 120.616Z" fill="#F3F3F3"/>
<path fill-rule="evenodd" clip-rule="evenodd" d="M29.6711 15.3185C25.8646 15.3185 22.2139 16.8307 19.5223 19.5223C16.8307 22.2139 15.3185 25.8646 15.3185 29.6711V51.683C15.3185 55.9131 11.8893 59.3423 7.65925 59.3423C3.42916 59.3423 0 55.9131 0 51.683V29.6711C0 21.8019 3.12606 14.2549 8.69048 8.69048C14.2549 3.12606 21.8019 0 29.6711 0H51.683C55.9131 0 59.3423 3.42916 59.3423 7.65925C59.3423 11.8893 55.9131 15.3185 51.683 15.3185H29.6711Z" fill="#F3F3F3"/>
<path d="M103.528 50.5823C91.7533 50.4068 75.3949 50.6634 72.0281 59.8478L63.7538 79.5593C63.3865 79.1336 62.9053 78.8251 62.3687 78.6715L59.0364 77.72C58.6701 77.6147 58.287 77.5838 57.909 77.6292C57.531 77.6746 57.1655 77.7953 56.8335 77.9844C56.5016 78.1735 56.2097 78.4273 55.9745 78.7312C55.7394 79.0351 55.5657 79.3832 55.4634 79.7554L53.7244 86.0207C53.6205 86.3926 53.59 86.7816 53.6347 87.1655C53.6793 87.5494 53.7982 87.9206 53.9844 88.2577C54.1707 88.5948 54.4207 88.8913 54.7202 89.1301C55.0196 89.3688 55.3625 89.5452 55.7293 89.6491L59.0627 90.6006C59.1739 90.6314 59.2851 90.6416 59.3963 90.6611C58.7594 92.2716 58.362 94.0432 58.362 95.0974V118.007C58.362 119.182 58.8473 119.725 59.6187 119.98V126.084C59.6175 126.626 59.7218 127.163 59.9254 127.663C60.1291 128.164 60.4282 128.619 60.8056 129.002C61.1829 129.385 61.6311 129.689 62.1244 129.896C62.6177 130.103 63.1464 130.209 63.68 130.207H74.5739C75.1076 130.209 75.6362 130.103 76.1295 129.896C76.6228 129.689 77.071 129.385 77.4484 129.002C77.8257 128.619 78.1248 128.164 78.3285 127.663C78.5322 127.163 78.6364 126.626 78.6352 126.084V120.204H129.696V126.084C129.695 126.626 129.8 127.163 130.004 127.663C130.207 128.164 130.507 128.619 130.884 129.002C131.262 129.385 131.71 129.689 132.203 129.896C132.696 130.102 133.225 130.208 133.759 130.207H144.653C145.186 130.209 145.715 130.103 146.208 129.896C146.702 129.689 147.15 129.386 147.528 129.002C147.905 128.619 148.204 128.164 148.408 127.664C148.612 127.163 148.717 126.626 148.716 126.084V119.98C149.487 119.725 149.97 119.182 149.97 118.007V95.0974C149.97 94.0432 149.572 92.2716 148.936 90.6611C149.047 90.6427 149.159 90.6324 149.27 90.5996L152.603 89.6491C152.97 89.5451 153.313 89.3686 153.612 89.1298C153.911 88.891 154.161 88.5945 154.347 88.2574C154.534 87.9203 154.652 87.5492 154.697 87.1653C154.742 86.7815 154.711 86.3925 154.607 86.0207L152.871 79.7554C152.769 79.383 152.595 79.0348 152.36 78.7308C152.124 78.4268 151.832 78.173 151.5 77.9839C151.168 77.7948 150.802 77.6741 150.424 77.6288C150.046 77.5835 149.663 77.6145 149.296 77.72L145.965 78.6715C145.428 78.8254 144.947 79.1338 144.58 79.5593L136.304 59.8478C132.695 50.5238 115.302 50.7578 103.527 50.5823H103.528ZM137.254 80.8044C137.45 81.3956 136.864 81.7897 136.25 81.8257C136.25 81.8257 134.244 81.9981 131.478 82.225C129.373 77.2324 124.481 73.7138 118.815 73.7138C112.596 73.7138 107.316 77.953 105.623 83.7256C105.154 83.7317 104.609 83.7523 104.172 83.7523C93.4589 83.7523 72.0837 81.8257 72.0837 81.8257C71.47 81.7887 70.8836 81.3956 71.0798 80.8044C79.3116 55.3275 79.5573 57.2428 103.711 57.5107C127.865 57.7775 128.006 55.9577 137.254 80.8044ZM118.815 78.5288C120.306 78.5236 121.775 78.8953 123.089 79.6104C124.404 80.3256 125.522 81.3617 126.344 82.6253C121.506 82.9907 115.938 83.3633 110.75 83.5798C111.496 82.058 112.647 80.7785 114.072 79.8859C115.497 78.9933 117.14 78.5232 118.815 78.5288ZM63.126 86.7977C63.1988 86.9065 63.2696 87.0163 63.3494 87.1231H63.036L63.126 86.7977ZM68.4784 93.1964C70.5975 93.1605 81.9736 97.0486 81.9736 97.0486C83.3941 97.454 84.6448 100.18 84.6377 101.679C84.6165 106.726 71.7875 104.974 66.5807 104.994C66.2307 104.995 65.8841 104.925 65.5606 104.79C65.2372 104.654 64.9433 104.455 64.6958 104.204C64.4483 103.953 64.252 103.654 64.1183 103.326C63.9846 102.998 63.9161 102.646 63.9166 102.291V95.9011C63.9166 94.4025 66.3593 93.2323 68.4784 93.1964ZM139.855 93.1964C141.974 93.2313 144.417 94.4025 144.417 95.9011V102.291C144.418 102.646 144.349 102.998 144.215 103.326C144.082 103.655 143.886 103.953 143.638 104.205C143.391 104.456 143.097 104.655 142.773 104.791C142.45 104.926 142.103 104.996 141.753 104.995C136.546 104.975 123.717 106.726 123.696 101.68C123.689 100.181 124.939 97.454 126.36 97.0486C126.36 97.0486 137.736 93.1605 139.855 93.1964Z" fill="#F3F3F3"/>
</svg>
