<svg width="16" height="16" viewBox="0 0 16 16" fill="none" xmlns="http://www.w3.org/2000/svg">
<path d="M15.2721 7.88003C15.2721 7.3352 14.8619 6.92495 14.3171 6.92495L8.987 6.92495L8.987 1.60145C8.987 1.05662 8.57674 0.646366 8.03192 0.646366C7.4871 0.646366 7.07684 1.05662 7.07684 1.60145L7.07684 6.92495L1.75334 6.92495C1.20852 6.92495 0.778567 7.3352 0.79826 7.88003C0.81467 8.29028 1.07395 8.83839 1.75334 8.83511H7.07684L7.07684 14.1586C7.09981 14.9496 7.75951 15.117 8.03192 15.1137C8.57674 15.1137 8.987 14.7034 8.987 14.1586L8.987 8.83511H14.3105C14.8619 8.83511 15.2721 8.42485 15.2721 7.88003Z" fill="#7A7A7A"/>
</svg>
