<svg width="248" height="333" viewBox="0 0 248 333" fill="none" xmlns="http://www.w3.org/2000/svg">
<path d="M181.926 233.74C171.753 233.74 163.226 242.267 163.226 252.439C163.226 262.611 171.753 271.138 181.926 271.138C191.724 271.138 200.625 262.611 200.176 252.888C200.625 242.192 192.173 233.74 181.926 233.74Z" fill="#FFF6F6"/>
<path d="M355.004 300.01C366.747 279.74 366.822 255.58 355.154 235.385L238.022 32.5366C226.429 12.1171 205.486 0 181.999 0C158.513 0 137.57 12.1919 125.977 32.4618L8.69548 235.535C-2.97281 255.954 -2.89802 280.263 8.91987 300.533C20.5882 320.579 41.4564 332.621 64.793 332.621H298.757C322.169 332.621 343.186 320.429 355.004 300.01ZM329.573 285.35C323.066 296.569 311.547 303.226 298.682 303.226H64.7182C52.0028 303.226 40.5589 296.719 34.2012 285.724C27.7686 274.579 27.6938 261.265 34.1264 250.045L151.408 47.0471C157.765 35.9024 169.134 29.3203 181.999 29.3203C194.79 29.3203 206.234 35.9772 212.591 47.1219L329.798 250.12C336.081 261.041 336.006 274.205 329.573 285.35Z" fill="#FFF6F6"/>
<path d="M177.288 102.472C168.387 105.015 162.852 113.093 162.852 122.891C163.301 128.8 163.675 134.784 164.124 140.693C165.395 163.207 166.667 185.272 167.938 207.785C168.387 215.415 174.296 220.95 181.925 220.95C189.555 220.95 195.538 215.041 195.912 207.337C195.912 202.699 195.912 198.436 196.361 193.724C197.184 179.288 198.082 164.852 198.904 150.416C199.353 141.067 200.176 131.717 200.625 122.368C200.625 119.002 200.176 116.01 198.904 113.018C195.09 104.641 186.189 100.377 177.288 102.472Z" fill="#FFF6F6"/>
</svg>
