<svg width="42" height="37" viewBox="0 0 42 37" fill="none" xmlns="http://www.w3.org/2000/svg">
<path fill-rule="evenodd" clip-rule="evenodd" d="M40.204 24.4491C41.0615 24.4491 41.7566 25.1442 41.7566 26.0017V30.4635C41.7566 32.0586 41.1229 33.5884 39.995 34.7163C38.8671 35.8443 37.3373 36.4779 35.7422 36.4779H31.2803C30.4229 36.4779 29.7278 35.7828 29.7278 34.9254C29.7278 34.0679 30.4229 33.3728 31.2803 33.3728H35.7422C36.5138 33.3728 37.2538 33.0663 37.7994 32.5207C38.345 31.9751 38.6515 31.2351 38.6515 30.4635V26.0017C38.6515 25.1442 39.3466 24.4491 40.204 24.4491Z" fill="#F3F3F3"/>
<path fill-rule="evenodd" clip-rule="evenodd" d="M29.7278 1.55255C29.7278 0.695105 30.4229 7.62939e-06 31.2803 7.62939e-06H35.7422C37.3373 7.62939e-06 38.8671 0.633665 39.995 1.76158C41.1229 2.8895 41.7566 4.41928 41.7566 6.0144V10.4762C41.7566 11.3337 41.0615 12.0288 40.204 12.0288C39.3466 12.0288 38.6515 11.3337 38.6515 10.4762V6.0144C38.6515 5.2428 38.345 4.50281 37.7994 3.95721C37.2538 3.41161 36.5138 3.10509 35.7422 3.10509H31.2803C30.4229 3.10509 29.7278 2.41 29.7278 1.55255Z" fill="#F3F3F3"/>
<path fill-rule="evenodd" clip-rule="evenodd" d="M1.55254 24.4491C2.40999 24.4491 3.10509 25.1442 3.10509 26.0017V30.4635C3.10509 31.2351 3.4116 31.9751 3.9572 32.5207C4.5028 33.0663 5.2428 33.3728 6.01439 33.3728H10.4762C11.3337 33.3728 12.0288 34.0679 12.0288 34.9254C12.0288 35.7828 11.3337 36.4779 10.4762 36.4779H6.01439C4.41928 36.4779 2.88949 35.8443 1.76157 34.7163C0.633658 33.5884 0 32.0586 0 30.4635V26.0017C0 25.1442 0.695097 24.4491 1.55254 24.4491Z" fill="#F3F3F3"/>
<path fill-rule="evenodd" clip-rule="evenodd" d="M6.01439 3.10509C5.2428 3.10509 4.5028 3.41161 3.9572 3.95721C3.4116 4.50281 3.10509 5.2428 3.10509 6.0144V10.4762C3.10509 11.3337 2.40999 12.0288 1.55254 12.0288C0.695097 12.0288 0 11.3337 0 10.4762V6.0144C0 4.41928 0.633658 2.8895 1.76157 1.76158C2.88949 0.633666 4.41928 7.62939e-06 6.01439 7.62939e-06H10.4762C11.3337 7.62939e-06 12.0288 0.695105 12.0288 1.55255C12.0288 2.41 11.3337 3.10509 10.4762 3.10509H6.01439Z" fill="#F3F3F3"/>
<path d="M20.9853 10.2531C18.5986 10.2175 15.2827 10.2696 14.6002 12.1313L12.923 16.1268C12.8485 16.0405 12.751 15.978 12.6422 15.9468L11.9668 15.754C11.8925 15.7326 11.8149 15.7264 11.7382 15.7356C11.6616 15.7448 11.5875 15.7692 11.5203 15.8076C11.453 15.8459 11.3938 15.8973 11.3461 15.959C11.2985 16.0206 11.2633 16.0911 11.2425 16.1666L10.89 17.4365C10.869 17.5119 10.8628 17.5908 10.8718 17.6686C10.8809 17.7464 10.905 17.8217 10.9427 17.89C10.9805 17.9583 11.0312 18.0184 11.0919 18.0668C11.1526 18.1152 11.2221 18.151 11.2964 18.172L11.9721 18.3649C11.9946 18.3711 12.0172 18.3732 12.0397 18.3772C11.9106 18.7036 11.8301 19.0627 11.8301 19.2764V23.9203C11.8301 24.1585 11.9284 24.2686 12.0848 24.3202V25.5575C12.0846 25.6673 12.1057 25.7761 12.147 25.8776C12.1883 25.9791 12.2489 26.0713 12.3254 26.149C12.4019 26.2267 12.4927 26.2882 12.5927 26.3301C12.6927 26.372 12.7999 26.3935 12.9081 26.3932H15.1163C15.2244 26.3935 15.3316 26.372 15.4316 26.3301C15.5316 26.2882 15.6224 26.2267 15.6989 26.149C15.7754 26.0713 15.836 25.9791 15.8773 25.8776C15.9186 25.7761 15.9397 25.6673 15.9395 25.5575V24.3655H26.2897V25.5575C26.2895 25.6673 26.3106 25.7761 26.352 25.8776C26.3933 25.9791 26.4539 26.0713 26.5304 26.149C26.6069 26.2266 26.6978 26.2882 26.7978 26.3301C26.8978 26.372 27.0049 26.3935 27.1131 26.3932H29.3213C29.4295 26.3935 29.5367 26.372 29.6367 26.3301C29.7367 26.2882 29.8276 26.2267 29.9041 26.149C29.9806 26.0714 30.0413 25.9791 30.0826 25.8776C30.124 25.7761 30.1451 25.6673 30.145 25.5575V24.3202C30.3013 24.2686 30.3991 24.1585 30.3991 23.9203V19.2764C30.3991 19.0627 30.3185 18.7036 30.1896 18.3772C30.2122 18.3734 30.2347 18.3713 30.2573 18.3647L30.9329 18.172C31.0073 18.151 31.0768 18.1152 31.1374 18.0668C31.1981 18.0184 31.2488 17.9583 31.2865 17.8899C31.3242 17.8216 31.3483 17.7464 31.3573 17.6686C31.3664 17.5908 31.3602 17.5119 31.3391 17.4365L30.9872 16.1666C30.9665 16.0911 30.9312 16.0205 30.8836 15.9589C30.8359 15.8973 30.7767 15.8458 30.7093 15.8075C30.642 15.7691 30.5679 15.7447 30.4912 15.7355C30.4145 15.7263 30.3369 15.7326 30.2626 15.754L29.5873 15.9468C29.4786 15.978 29.3811 16.0406 29.3066 16.1268L27.6291 12.1313C26.8975 10.2413 23.372 10.2887 20.9851 10.2531H20.9853ZM27.8216 16.3792C27.8613 16.499 27.7425 16.5789 27.6181 16.5862C27.6181 16.5862 27.2115 16.6212 26.6508 16.6671C26.2241 15.6551 25.2326 14.9419 24.0839 14.9419C22.8233 14.9419 21.7532 15.8012 21.4099 16.9713C21.3148 16.9726 21.2043 16.9767 21.1158 16.9767C18.9443 16.9767 14.6115 16.5862 14.6115 16.5862C14.4871 16.5787 14.3682 16.499 14.408 16.3792C16.0766 11.215 16.1264 11.6032 21.0224 11.6575C25.9185 11.7116 25.947 11.3427 27.8216 16.3792ZM24.0839 15.9179C24.3862 15.9169 24.684 15.9922 24.9504 16.1372C25.2169 16.2821 25.4436 16.4922 25.6101 16.7483C24.6295 16.8224 23.5009 16.8979 22.4491 16.9418C22.6004 16.6333 22.8337 16.3739 23.1226 16.193C23.4115 16.0121 23.7445 15.9168 24.0839 15.9179ZM12.7957 17.594C12.8105 17.6161 12.8248 17.6384 12.841 17.66H12.7775L12.7957 17.594ZM13.8807 18.8911C14.3102 18.8838 16.6162 19.6719 16.6162 19.6719C16.9041 19.7541 17.1576 20.3067 17.1562 20.6105C17.1519 21.6335 14.5514 21.2783 13.496 21.2825C13.4251 21.2826 13.3548 21.2686 13.2893 21.2411C13.2237 21.2136 13.1641 21.1732 13.1139 21.1223C13.0638 21.0714 13.024 21.0109 12.9969 20.9444C12.9698 20.8778 12.9559 20.8065 12.956 20.7345V19.4393C12.956 19.1355 13.4511 18.8984 13.8807 18.8911ZM28.3489 18.8911C28.7784 18.8982 29.2736 19.1355 29.2736 19.4393V20.7345C29.2737 20.8065 29.2598 20.8779 29.2327 20.9444C29.2056 21.011 29.1659 21.0715 29.1157 21.1224C29.0655 21.1734 29.0059 21.2138 28.9404 21.2413C28.8748 21.2688 28.8045 21.2828 28.7335 21.2827C27.6781 21.2785 25.0777 21.6335 25.0734 20.6107C25.0719 20.3069 25.3254 19.7541 25.6134 19.6719C25.6134 19.6719 27.9193 18.8838 28.3489 18.8911Z" fill="#F3F3F3"/>
</svg>
