<svg width="38" height="38" viewBox="0 0 38 38" fill="none" xmlns="http://www.w3.org/2000/svg">
<path d="M18.876 3.05176e-05C8.45109 3.05176e-05 0 8.45137 0 18.8761C0 29.3007 8.45109 37.7521 18.876 37.7521C29.3005 37.7521 37.7528 29.3005 37.7528 18.8761C37.7528 8.451 29.3005 3.05176e-05 18.876 3.05176e-05ZM13.9644 10.2537L17.9551 6.26335C18.2165 6.00222 18.5579 5.87261 18.8997 5.87261C18.903 5.87261 18.9065 5.87261 18.9095 5.87261C18.9132 5.87261 18.9163 5.87261 18.9193 5.87261C19.261 5.87261 19.6031 6.00222 19.8645 6.26335L23.8546 10.2537C24.3769 10.7756 24.3769 11.6219 23.8546 12.1435C23.5939 12.4046 23.2515 12.5351 22.9098 12.5351C22.5674 12.5351 22.2257 12.4046 21.965 12.1435L20.2012 10.38V14.4396V17.0507V17.54C20.2012 18.2783 19.6025 18.8766 18.8643 18.8766C18.126 18.8766 17.5281 18.2783 17.5281 17.54V17.0507V14.4396V10.4706L15.8548 12.1437C15.5934 12.4048 15.2516 12.5353 14.91 12.5353C14.5676 12.5353 14.2259 12.4048 13.9648 12.1437C13.4424 11.6219 13.4424 10.7752 13.9644 10.2537ZM29.1422 26.3408H29.1418C29.1418 28.1447 27.3728 29.558 25.1142 29.558H12.6391C10.3809 29.558 8.61154 28.1447 8.61154 26.3408V17.6566C8.61154 15.8524 10.3805 14.4391 12.6391 14.4391H14.3235C14.5151 14.4733 14.711 14.4933 14.9097 14.4933C15.1072 14.4933 15.3017 14.4731 15.4924 14.4391H15.5694V17.0502H12.6391C11.7249 17.0502 11.2227 17.5059 11.2227 17.6566V26.3408C11.2227 26.4916 11.725 26.9469 12.6391 26.9469H25.1146C26.0288 26.9469 26.531 26.4912 26.531 26.3408V17.6566C26.531 17.5059 26.0287 17.0502 25.1146 17.0502H22.1591V14.4391H22.34C22.5263 14.4714 22.716 14.4933 22.9095 14.4933C23.1082 14.4933 23.3038 14.4734 23.4957 14.4391H25.1146C27.3732 14.4391 29.1422 15.8527 29.1422 17.6566V26.3408Z" fill="#F3F3F3"/>
</svg>
