<svg width="25" height="25" viewBox="0 0 25 25" fill="none" xmlns="http://www.w3.org/2000/svg">
<path d="M0 3.81947C0 1.71006 1.71003 3.05176e-05 3.81944 3.05176e-05H17.659C18.8561 3.05176e-05 20.0043 0.4756 20.8508 1.32211L23.6779 4.14925C24.5244 4.99577 25 6.14389 25 7.34104V21.1806C25 23.29 23.29 25 21.1806 25H3.81944C1.71003 25 0 23.29 0 21.1806V3.81947ZM3.81944 2.08336C2.86061 2.08336 2.08333 2.86064 2.08333 3.81947V21.1806C2.08333 22.1395 2.86061 22.9167 3.81944 22.9167H4.16667V15.625C4.16667 13.8992 5.56578 12.5 7.29167 12.5H17.7083C19.4342 12.5 20.8333 13.8992 20.8333 15.625V22.9167H21.1806C22.1394 22.9167 22.9167 22.1395 22.9167 21.1806V7.34104C22.9167 6.69642 22.6606 6.07821 22.2047 5.62239L19.3776 2.79525C19.0164 2.434 18.5531 2.19821 18.0556 2.11592V5.90281C18.0556 7.6287 16.6564 9.02781 14.9306 9.02781H8.68056C6.95467 9.02781 5.55556 7.6287 5.55556 5.90281V2.08336H3.81944ZM18.75 22.9167V15.625C18.75 15.0498 18.2836 14.5834 17.7083 14.5834H7.29167C6.71637 14.5834 6.25 15.0498 6.25 15.625V22.9167H18.75ZM7.63889 2.08336V5.90281C7.63889 6.4781 8.10526 6.94447 8.68056 6.94447H14.9306C15.5058 6.94447 15.9722 6.4781 15.9722 5.90281V2.08336H7.63889Z" fill="white"/>
</svg>
