<svg width="24" height="24" viewBox="0 0 24 24" fill="none" xmlns="http://www.w3.org/2000/svg">
<path d="M10.2872 23.1561L0.833893 13.8915C-0.277964 12.8012 -0.277964 11.1693 0.833893 10.0837L10.2872 0.838748C11.3965 -0.246737 13.1344 -0.293293 14.2363 0.784841C15.3131 1.83847 15.1979 3.61494 14.1511 4.63672L9.53345 9.15508C9.53345 9.15508 21.1804 9.16978 21.1854 9.16978C21.9567 9.16978 22.7004 9.46382 23.2288 10.0127C24.496 11.3359 24.1579 13.6514 22.5352 14.531C22.1245 14.7541 21.6562 14.8716 21.1854 14.8692L9.53347 14.8594C9.53347 14.8594 14.1487 19.3729 14.1512 19.3753C15.2004 20.402 15.3056 22.1711 14.2363 23.2199C13.1344 24.298 11.3965 24.2417 10.2872 23.1561Z" fill="black"/>
</svg>
