<svg width="204" height="213" viewBox="0 0 204 213" fill="none" xmlns="http://www.w3.org/2000/svg">
<path d="M250.613 57.9347C250.591 25.9291 224.651 0 192.657 0C162.662 0 138.293 22.8534 135.292 52.0411H17.1966C7.74328 52.0307 0 59.7739 0 69.2268V193.495C0 202.97 7.74328 210.692 17.1966 210.692H141.465C150.94 210.692 158.705 202.97 158.705 193.495V104.695C165.813 109.857 174.116 113.427 183.139 114.923L183.386 128.409L175.105 131.184V205.271C175.105 205.271 183.063 213.445 193.495 212.735C203.906 212.036 210.165 205.293 210.165 205.293L210.176 131.194L202.443 129.29L202.218 114.922C229.652 110.32 250.591 86.6493 250.613 57.9347ZM192.646 102.555C168.028 102.555 148.047 82.573 148.047 57.9238C148.047 33.2745 168.007 13.3248 192.667 13.3248C217.284 13.2923 237.266 33.2635 237.288 57.9562C237.267 82.584 217.327 102.555 192.646 102.555ZM129.022 176.622H29.6394V165.308H129.022V176.622ZM129.022 137.034H29.6394V125.699H129.022V137.034ZM129.022 97.4578H29.6394V86.1223H129.022V97.4578Z" fill="#F3F3F3"/>
</svg>
