<svg width="229" height="229" viewBox="0 0 229 229" fill="none" xmlns="http://www.w3.org/2000/svg">
<path d="M204.018 1.52588e-05C190.241 1.52588e-05 179.036 11.2044 179.036 24.9818C179.036 29.2912 180.131 33.3466 182.059 36.8898L141.135 77.8142C135.493 73.4216 128.432 70.7818 120.745 70.7818C113.059 70.7818 105.998 73.4216 100.352 77.8101L68.421 45.8791C69.8866 43.4018 70.7818 40.5538 70.7818 37.4727C70.7818 28.2878 63.3123 20.8182 54.1273 20.8182C44.9423 20.8182 37.4727 28.2878 37.4727 37.4727C37.4727 46.6577 44.9423 54.1273 54.1273 54.1273C57.2084 54.1273 60.0563 53.2321 62.5337 51.7665L94.4646 83.6974C90.0761 89.3433 87.4364 96.4048 87.4364 104.091C87.4364 111.777 90.0761 118.839 94.4646 124.48L41.7363 177.213C37.2979 173.186 31.4313 170.709 24.9818 170.709C11.2043 170.709 0 181.913 0 195.691C0 209.468 11.2043 220.673 24.9818 220.673C38.7593 220.673 49.9636 209.468 49.9636 195.691C49.9636 191.382 48.8686 187.326 46.9408 183.783L100.356 130.368C104.961 133.948 110.515 136.347 116.586 137.109V179.411C104.79 181.401 95.7678 191.661 95.7678 204.018C95.7678 217.796 106.972 229 120.75 229C134.527 229 145.731 217.796 145.731 204.018C145.731 191.665 136.709 181.405 124.913 179.411V137.109C130.984 136.347 136.538 133.948 141.143 130.368L173.074 162.299C171.604 164.78 170.709 167.628 170.709 170.709C170.709 179.894 178.179 187.364 187.364 187.364C196.549 187.364 204.018 179.894 204.018 170.709C204.018 161.524 196.549 154.055 187.364 154.055C184.283 154.055 181.435 154.95 178.957 156.415L147.026 124.484C151.415 118.839 154.055 111.777 154.055 104.091C154.055 96.4048 151.415 89.3433 147.026 83.7016L187.268 43.46C191.702 47.4863 197.569 49.9636 204.018 49.9636C217.796 49.9636 229 38.7593 229 24.9818C229 11.2044 217.796 1.52588e-05 204.018 1.52588e-05ZM45.8 37.4727C45.8 32.8802 49.5348 29.1455 54.1273 29.1455C58.7198 29.1455 62.4545 32.8802 62.4545 37.4727C62.4545 42.0652 58.7198 45.8 54.1273 45.8C49.5348 45.8 45.8 42.0652 45.8 37.4727ZM24.9818 212.345C15.7968 212.345 8.32727 204.876 8.32727 195.691C8.32727 186.506 15.7968 179.036 24.9818 179.036C34.1668 179.036 41.6364 186.506 41.6364 195.691C41.6364 204.876 34.1668 212.345 24.9818 212.345ZM137.4 204.018C137.4 213.203 129.93 220.673 120.745 220.673C111.56 220.673 104.091 213.203 104.091 204.018C104.091 194.833 111.56 187.364 120.745 187.364C129.93 187.364 137.4 194.833 137.4 204.018ZM120.745 129.073C106.968 129.073 95.7636 117.868 95.7636 104.091C95.7636 90.3134 106.968 79.1091 120.745 79.1091C134.523 79.1091 145.727 90.3134 145.727 104.091C145.727 117.868 134.523 129.073 120.745 129.073ZM195.691 170.709C195.691 175.302 191.956 179.036 187.364 179.036C182.771 179.036 179.036 175.302 179.036 170.709C179.036 166.117 182.771 162.382 187.364 162.382C191.956 162.382 195.691 166.117 195.691 170.709ZM204.018 41.6364C194.833 41.6364 187.364 34.1668 187.364 24.9818C187.364 15.7969 194.833 8.32729 204.018 8.32729C213.203 8.32729 220.673 15.7969 220.673 24.9818C220.673 34.1668 213.203 41.6364 204.018 41.6364Z" fill="#F3F3F3"/>
</svg>
