<svg width="13" height="17" viewBox="0 0 13 17" fill="none" xmlns="http://www.w3.org/2000/svg">
<path d="M6.43048 0C2.88468 0 0 2.88473 0 6.43048C0 7.89303 1.00813 10.0318 2.99632 12.7873C4.4337 14.7794 5.8479 16.3534 5.90738 16.4194L6.43053 17L6.95368 16.4194C7.01316 16.3534 8.42735 14.7794 9.86474 12.7873C11.8529 10.0318 12.8611 7.89308 12.8611 6.43048C12.861 2.88473 9.97628 0 6.43048 0ZM6.43048 14.8794C4.65913 12.8086 1.40833 8.56668 1.40833 6.43048C1.40833 3.66128 3.66124 1.40833 6.43048 1.40833C9.19973 1.40833 11.4526 3.66128 11.4526 6.43048C11.4527 8.56668 8.20183 12.8086 6.43048 14.8794Z" fill="black"/>
<path d="M6.43048 8.76349C7.71893 8.76349 8.76343 7.71899 8.76343 6.43054C8.76343 5.14209 7.71893 4.0976 6.43048 4.0976C5.14203 4.0976 4.09753 5.14209 4.09753 6.43054C4.09753 7.71899 5.14203 8.76349 6.43048 8.76349Z" fill="black"/>
</svg>
