<svg width="14" height="17" viewBox="0 0 14 17" fill="none" xmlns="http://www.w3.org/2000/svg">
<path d="M12.75 3.1875H11.1563V1.0625C11.1563 0.475734 10.6805 0 10.0938 0H3.71875C3.13198 0 2.65625 0.475734 2.65625 1.0625V3.1875H1.0625C0.475734 3.1875 0 3.66324 0 4.25V5.3125H13.8125V4.25C13.8125 3.66324 13.3368 3.1875 12.75 3.1875ZM4.78125 3.1875V2.125H9.03125V3.1875H4.78125Z" fill="#B30000"/>
<path d="M1.0625 15.9376C1.0625 16.5244 1.5381 17 2.12487 17H11.6878C12.2744 17 12.75 16.5244 12.75 15.9378V15.9376V6.375H1.0625V15.9376ZM9.03125 9.03125C9.03125 8.73787 9.26912 8.5 9.5625 8.5C9.85588 8.5 10.0938 8.73787 10.0938 9.03125V14.3438C10.0938 14.6371 9.85588 14.875 9.5625 14.875C9.26912 14.875 9.03125 14.6371 9.03125 14.3438V9.03125ZM6.375 9.03125C6.375 8.73787 6.61287 8.5 6.90625 8.5C7.19963 8.5 7.4375 8.73787 7.4375 9.03125V14.3438C7.4375 14.6371 7.19963 14.875 6.90625 14.875C6.61287 14.875 6.375 14.6371 6.375 14.3438V9.03125ZM3.71875 9.03125C3.71875 8.73787 3.95662 8.5 4.25 8.5C4.54338 8.5 4.78125 8.73787 4.78125 9.03125V14.3438C4.78125 14.6371 4.54338 14.875 4.25 14.875C3.95662 14.875 3.71875 14.6371 3.71875 14.3438V9.03125Z" fill="#B30000"/>
</svg>
