<svg width="69" height="25" viewBox="0 0 69 25" fill="none" xmlns="http://www.w3.org/2000/svg">
<path d="M50.3338 8.79088C49.5108 8.79088 49.0258 9.24639 49.0258 10.2605V14.1549C49.0258 15.1689 49.5109 15.6246 50.3338 15.6246C51.1567 15.6246 51.6565 15.1689 51.6565 14.1549V10.2605C51.6565 9.24639 51.1568 8.79088 50.3338 8.79088Z" fill="#F0F0F0"/>
<path d="M58.6956 8.79088C57.8726 8.79088 57.3875 9.24639 57.3875 10.2605V14.1549C57.3875 15.1689 57.8727 15.6246 58.6956 15.6246C59.5185 15.6246 60.0183 15.1689 60.0183 14.1549V10.2605C60.0183 9.24639 59.5186 8.79088 58.6956 8.79088Z" fill="#F0F0F0"/>
<path d="M41.972 8.79088C41.149 8.79088 40.664 9.24639 40.664 10.2605V14.1549C40.664 15.1689 41.1491 15.6246 41.972 15.6246C42.7949 15.6246 43.2947 15.1689 43.2947 14.1549V10.2605C43.2947 9.24639 42.7951 8.79088 41.972 8.79088Z" fill="#F0F0F0"/>
<path d="M62.0848 0H6.91508C3.10216 0 0 3.10203 0 6.91495V17.7385C0 21.5514 3.10216 24.6536 6.91508 24.6536H62.0849C65.8978 24.6536 69 21.5514 69 17.7385V6.91495C68.9999 3.10203 65.8977 0 62.0848 0ZM16.3104 2.2549C17.1407 2.2549 17.8137 2.92791 17.8137 3.7582C17.8137 4.58849 17.1407 5.26151 16.3104 5.26151C15.4801 5.26151 14.8071 4.58849 14.8071 3.7582C14.8072 2.92791 15.4802 2.2549 16.3104 2.2549ZM13.6128 17.3882L11.4672 13.7435L9.32145 17.3881C9.21863 17.5497 9.01284 17.6233 8.77767 17.6233C8.14589 17.6233 7.2493 17.1236 7.2493 16.4916C7.2493 16.3593 7.29337 16.2271 7.38164 16.0802L9.92412 12.1562L7.48446 8.24697C7.3815 8.08538 7.33744 7.93835 7.33744 7.79132C7.33744 7.17423 8.175 6.7039 8.82174 6.7039C9.14491 6.7039 9.36552 6.82142 9.51255 7.0861L11.4671 10.4958L13.4217 7.0861C13.5687 6.82155 13.7891 6.7039 14.1125 6.7039C14.7592 6.7039 15.5968 7.17423 15.5968 7.79132C15.5968 7.93849 15.5527 8.08538 15.4498 8.24697L13.0101 12.1562L15.5526 16.0802C15.6407 16.2272 15.6849 16.3593 15.6849 16.4916C15.6849 17.1236 14.7883 17.6233 14.1564 17.6233C13.9214 17.6233 13.7011 17.5498 13.6128 17.3882ZM16.3104 22.5489C15.4801 22.5489 14.8071 21.8759 14.8071 21.0456C14.8071 20.2153 15.4801 19.5423 16.3104 19.5423C17.1407 19.5423 17.8137 20.2153 17.8137 21.0456C17.8137 21.8759 17.1407 22.5489 16.3104 22.5489ZM24.3703 7.89429L21.3427 12.9352C21.3133 12.9793 21.2839 13.0527 21.2839 13.1408V16.8296C21.2839 17.2998 20.7107 17.535 20.1374 17.535C19.5642 17.535 18.9913 17.2998 18.9913 16.8296V13.1408C18.9913 13.0527 18.9619 12.9793 18.9324 12.9352L15.8903 7.89429C15.8608 7.83553 15.8608 7.77677 15.8608 7.7327C15.8608 7.18892 16.7866 6.79218 17.4187 6.79218C17.7861 6.79218 17.9184 6.9392 18.08 7.2183L20.1374 10.9952L22.1802 7.2183C22.3274 6.9392 22.4743 6.79218 22.8415 6.79218C23.4734 6.79218 24.3994 7.18906 24.3994 7.7327C24.3998 7.77664 24.3998 7.83553 24.3703 7.89429ZM31.5273 17.5351H25.2668C24.7964 17.5351 24.6055 17.2853 24.6055 16.9326C24.6055 16.6974 24.6937 16.4035 24.8553 16.1241L28.9996 8.79074H25.5899C25.149 8.79074 24.8991 8.32041 24.8991 7.79132C24.8991 7.3063 25.1049 6.79204 25.5899 6.79204H31.2627C31.7037 6.79204 31.9239 7.0419 31.9239 7.39471C31.9239 7.62974 31.8358 7.90898 31.6742 8.20303L27.5299 15.5364H31.5271C31.9682 15.5364 32.2181 16.0655 32.2181 16.5358C32.218 17.006 31.9681 17.5351 31.5273 17.5351ZM45.5875 14.1549C45.5875 16.6827 44.0002 17.6233 41.9721 17.6233C39.9441 17.6233 38.3715 16.6827 38.3715 14.1549V10.2605C38.3715 7.7327 39.9441 6.79218 41.9721 6.79218C44.0002 6.79218 45.5875 7.7327 45.5875 10.2605V14.1549ZM46.7333 14.1549V10.2605C46.7333 7.7327 48.3058 6.79218 50.3339 6.79218C52.362 6.79218 53.9493 7.7327 53.9493 10.2605V14.1549C53.9493 16.6827 52.362 17.6233 50.3339 17.6233C48.3058 17.6233 46.7333 16.6829 46.7333 14.1549ZM52.6895 22.5489C51.8592 22.5489 51.1862 21.8759 51.1862 21.0456C51.1862 20.2153 51.8592 19.5423 52.6895 19.5423C53.5198 19.5423 54.1928 20.2153 54.1928 21.0456C54.1927 21.8759 53.5196 22.5489 52.6895 22.5489ZM52.6895 5.26137C51.8592 5.26137 51.1862 4.58836 51.1862 3.75807C51.1862 2.92778 51.8592 2.25476 52.6895 2.25476C53.5198 2.25476 54.1928 2.92778 54.1928 3.75807C54.1927 4.58836 53.5196 5.26137 52.6895 5.26137ZM62.3109 14.1549C62.3109 16.6827 60.7237 17.6233 58.6956 17.6233C56.6675 17.6233 55.0949 16.6827 55.0949 14.1549V10.2605C55.0949 7.7327 56.6675 6.79218 58.6956 6.79218C60.7237 6.79218 62.3109 7.7327 62.3109 10.2605V14.1549Z" fill="#F0F0F0"/>
</svg>
